<svg width="46" height="46" viewBox="0 0 46 46" fill="none" xmlns="http://www.w3.org/2000/svg">
<circle cx="22.7838" cy="22.7838" r="22.7838" fill="#323335"/>
<path fill-rule="evenodd" clip-rule="evenodd" d="M27.6942 17.4356C27.8811 17.4536 28.0674 17.5451 28.2122 17.6899C28.357 17.8346 28.4484 18.0209 28.4664 18.2078L29.2306 26.1855C29.243 26.2805 29.2363 26.3733 29.2109 26.4585C29.1854 26.5437 29.1418 26.6194 29.0825 26.6812C29.0233 26.7431 28.9497 26.7897 28.8661 26.8184C28.7824 26.847 28.6905 26.8571 28.5959 26.848C28.5012 26.839 28.4056 26.8109 28.3149 26.7656C28.2242 26.7202 28.1402 26.6585 28.0679 26.584C27.9956 26.5096 27.9365 26.424 27.8941 26.3324C27.8517 26.2407 27.827 26.1448 27.8212 26.0505L27.2201 19.7747L18.6901 28.3047C18.5705 28.4243 18.3982 28.4814 18.2112 28.4635C18.0242 28.4456 17.8377 28.3541 17.6928 28.2092C17.5479 28.0643 17.4565 27.8778 17.4386 27.6908C17.4206 27.5038 17.4777 27.3316 17.5973 27.212L26.1273 18.682L19.8515 18.0808C19.7572 18.0751 19.6614 18.0503 19.5697 18.0079C19.478 17.9656 19.3924 17.9065 19.318 17.8342C19.2436 17.7619 19.1818 17.6779 19.1365 17.5872C19.0911 17.4964 19.0631 17.4009 19.054 17.3062C19.0449 17.2115 19.055 17.1196 19.0837 17.036C19.1124 16.9524 19.159 16.8788 19.2208 16.8195C19.2826 16.7603 19.3584 16.7166 19.4436 16.6912C19.5287 16.6657 19.6216 16.659 19.7165 16.6714L27.6942 17.4356Z" fill="white"/>
</svg>
