<svg width="29" height="29" viewBox="0 0 29 29" fill="none" xmlns="http://www.w3.org/2000/svg">
<path d="M26.5381 29C25.1783 29 24.0754 27.8978 24.0752 26.5381L24.0752 11.3213L15.7314 25.7734C15.0515 26.9511 13.5449 27.3547 12.3672 26.6748C11.1897 25.9948 10.7869 24.4882 11.4668 23.3105L18.8613 10.5039L6.01562 17.9199C4.83798 18.5998 3.33229 18.1961 2.65234 17.0186C1.97241 15.8409 2.37603 14.3352 3.55371 13.6553L18.6758 4.92481L2.46191 4.92481C1.1022 4.92462 -2.2606e-06 3.82167 -2.32003e-06 2.46192C0.000188412 1.10233 1.10232 0.000192926 2.46191 2.32003e-06L26.5381 2.15227e-07C27.8129 0.000175864 28.8614 0.969244 28.9873 2.21094L29 2.46191L29 26.5381C28.9998 27.8977 27.8977 28.9998 26.5381 29Z" fill="#323335"/>
</svg>
